<svg id="Layer_1" data-name="Layer 1" xmlns="http://www.w3.org/2000/svg" xmlns:xlink="http://www.w3.org/1999/xlink" viewBox="0 0 983.33 226.97"><defs><style>.cls-1{fill:none;}.cls-2,.cls-5{fill:#4f595a;}.cls-3{clip-path:url(#clip-path);}.cls-4{fill:url(#linear-gradient);}.cls-5{fill-rule:evenodd;}.cls-6{clip-path:url(#clip-path-2);}.cls-7{fill:url(#linear-gradient-2);}.cls-8{fill:#fff;}</style><clipPath id="clip-path"><path class="cls-1" d="M945.5,157.88h28.37V76.68H945.5ZM882.69,86.52l11,33H871.83ZM866.48,55.84l-37.2,102h29.81l5.51-16.64h36.18l5.5,16.64h30l-37-102Zm81.33-11.73a13.82,13.82,0,0,0-4.63,10.57A13.21,13.21,0,0,0,947.81,65c3,2.75,7,4.19,12,4.19,4.92,0,9-1.44,12-4.19a13.09,13.09,0,0,0,4.49-10.28,13.69,13.69,0,0,0-4.49-10.57c-3-2.75-7.09-4.19-12-4.19-5.07,0-9,1.44-12,4.19"/></clipPath><linearGradient id="linear-gradient" x1="-655.05" y1="6340.65" x2="-653.52" y2="6340.65" gradientTransform="matrix(96.54, 0, 0, -96.54, 64066.48, 612214.54)" gradientUnits="userSpaceOnUse"><stop offset="0" stop-color="#dc51fe"/><stop offset="1" stop-color="#8456fa"/></linearGradient><clipPath id="clip-path-2"><path class="cls-1" d="M123.53,51.18a14.06,14.06,0,0,0-14,14V175.05a14.06,14.06,0,0,0,14,14h87.6a9.28,9.28,0,0,1,1.3.8l40.78,29.74a8.83,8.83,0,0,0,13.61-9.88l-6.75-20.66h5.75a14.06,14.06,0,0,0,14-14V65.2a14.06,14.06,0,0,0-14-14Z"/></clipPath><linearGradient id="linear-gradient-2" x1="-658.6" y1="6331.95" x2="-657.08" y2="6331.95" gradientTransform="matrix(111.84, 0, 0, -111.84, 73765.14, 708276.36)" xlink:href="#linear-gradient"/></defs><title>Final</title><path class="cls-2" d="M352,79.8a45.25,45.25,0,0,1,17.87-18.38q11.58-6.59,26.63-6.58,19.11,0,32.14,10.2t16.78,27.72H414.91a19.83,19.83,0,0,0-18.82-11.87q-9.84,0-15.7,7t-5.86,18.74q0,11.86,5.86,18.89t15.7,7a20.77,20.77,0,0,0,11.22-3,20.54,20.54,0,0,0,7.6-8.83h30.53q-3.76,17.51-16.78,27.71t-32.14,10.21q-15,0-26.63-6.59A45.18,45.18,0,0,1,352,133.64q-6.3-11.79-6.3-27A56.14,56.14,0,0,1,352,79.8Z"/><path class="cls-2" d="M474.9,153.83a37.31,37.31,0,0,1-15.13-14.47q-5.5-9.41-5.5-22.14t5.57-22A37.89,37.89,0,0,1,475,80.74a49.43,49.43,0,0,1,43.57,0A37.86,37.86,0,0,1,533.8,95.22q5.58,9.41,5.57,22a42.7,42.7,0,0,1-5.57,22.07,37.44,37.44,0,0,1-15.27,14.54,49.47,49.47,0,0,1-43.63,0Zm31.69-24c2.66-2.94,4-7.17,4-12.66s-1.32-9.7-4-12.6a12.75,12.75,0,0,0-9.77-4.34,12.51,12.51,0,0,0-9.69,4.34q-3.92,4.35-3.91,12.6T487,130a12.23,12.23,0,0,0,9.7,4.34A12.77,12.77,0,0,0,506.59,129.88Z"/><path class="cls-2" d="M626.36,85.3q8.25,9.35,8.25,25.26v47.32H606.24V114.32q0-6.94-3.62-10.93a12.47,12.47,0,0,0-9.7-4q-6.36,0-10,4t-3.62,10.93v43.56H551V76.69h28.37V88.27a28,28,0,0,1,10.13-8.9A30.51,30.51,0,0,1,604.07,76Q618.11,76,626.36,85.3Z"/><path class="cls-2" d="M689.17,131.11l15.2-54.42h30.25l-27.94,81.19H671.37L643.43,76.69h30.25Z"/><path class="cls-2" d="M760.16,153.83A37.31,37.31,0,0,1,745,139.36q-5.49-9.41-5.5-22.14t5.58-22A37.86,37.86,0,0,1,760.3,80.74a49.43,49.43,0,0,1,43.57,0,37.86,37.86,0,0,1,15.19,14.48q5.58,9.41,5.58,22a42.71,42.71,0,0,1-5.58,22.07,37.44,37.44,0,0,1-15.27,14.54,49.47,49.47,0,0,1-43.63,0Zm31.7-24c2.65-2.94,4-7.17,4-12.66s-1.33-9.7-4-12.6a12.78,12.78,0,0,0-9.77-4.34,12.53,12.53,0,0,0-9.7,4.34q-3.92,4.35-3.91,12.6T772.24,130a12.23,12.23,0,0,0,9.7,4.34A12.79,12.79,0,0,0,791.86,129.88Z"/><g class="cls-3"><rect class="cls-4" x="829.28" y="39.92" width="147.05" height="117.97"/></g><path class="cls-5" d="M65,64.24a7.68,7.68,0,1,1-7.68,7.67A7.68,7.68,0,0,1,65,64.24m25,0a7.68,7.68,0,1,1-7.67,7.67A7.68,7.68,0,0,1,90,64.24M26.08,138.68,19.57,158.6a8.53,8.53,0,0,0,13.13,9.55L72,139.45a8,8,0,0,1,1.27-.77h31.38V60.62a14.07,14.07,0,0,1,14-14h52.63V19.15A13.57,13.57,0,0,0,157.82,5.63H20.53A13.57,13.57,0,0,0,7,19.15v106a13.57,13.57,0,0,0,13.53,13.53Z"/><g class="cls-6"><rect class="cls-7" x="109.51" y="51.18" width="170.33" height="170.74"/></g><path class="cls-8" d="M234.64,118.72h-4.12v-4.89A15.63,15.63,0,0,0,214.89,98.2h-15V84.89a5.16,5.16,0,0,0-10.32,0V98.2H174.36a15.63,15.63,0,0,0-15.63,15.63v4.89H154.6a5.16,5.16,0,1,0,0,10.32h4.13v4.89a15.63,15.63,0,0,0,15.63,15.63h40.53a15.63,15.63,0,0,0,15.63-15.63V129h4.12a5.16,5.16,0,1,0,0-10.32ZM184.41,129a5.14,5.14,0,1,1,5.13-5.13A5.14,5.14,0,0,1,184.41,129Zm20.48,0a5.14,5.14,0,1,1,5.14-5.13A5.13,5.13,0,0,1,204.89,129Z"/></svg>